
<svg xmlns="http://www.w3.org/2000/svg" width="800" height="800">
<style>
.piece { 
    font-size: 80px; 
}

.black {
    fill: black;
}

.white {
    fill: white;
}
</style>
<rect fill="#D18B47" width="800" height="800"/>
<g transform="scale(100, 100)">
<path fill="#FFCE9E" d="M0,0H8v1H0zm0,2H8v1H0zm0
2H8v1H0zm0,2H8v1H0zM1,0V8h1V0zm2,0V8h1V0zm2
0V8h1V0zm2,0V8h1V0z"/>
</g><text stroke-width="1.5" stroke="black" class="piece white" x="10" y="680">♟</text>
<text stroke-width="1.5" stroke="black" class="piece white" x="110" y="680">♟</text>
<text stroke-width="1.5" stroke="black" class="piece white" x="210" y="680">♟</text>
<text stroke-width="1.5" stroke="black" class="piece white" x="310" y="680">♟</text>
<text stroke-width="1.5" stroke="black" class="piece white" x="410" y="680">♟</text>
<text stroke-width="1.5" stroke="black" class="piece white" x="510" y="680">♟</text>
<text stroke-width="1.5" stroke="black" class="piece white" x="610" y="680">♟</text>
<text stroke-width="1.5" stroke="black" class="piece white" x="710" y="680">♟</text>
<text class="piece black" x="10" y="180">♟</text>
<text class="piece black" x="110" y="180">♟</text>
<text class="piece black" x="210" y="180">♟</text>
<text class="piece black" x="310" y="180">♟</text>
<text class="piece black" x="410" y="180">♟</text>
<text class="piece black" x="510" y="180">♟</text>
<text class="piece black" x="610" y="180">♟</text>
<text class="piece black" x="710" y="180">♟</text>
<text stroke-width="1.5" stroke="black" class="piece white" x="210" y="780">♝</text>
<text stroke-width="1.5" stroke="black" class="piece white" x="510" y="780">♝</text>
<text class="piece black" x="210" y="80">♝</text>
<text class="piece black" x="510" y="80">♝</text>
<text stroke-width="1.5" stroke="black" class="piece white" x="410" y="780">♚</text>
<text class="piece black" x="410" y="80">♚</text>
<text stroke-width="1.5" stroke="black" class="piece white" x="310" y="780">♛</text>
<text class="piece black" x="310" y="80">♛</text>
<text stroke-width="1.5" stroke="black" class="piece white" x="10" y="780">♜</text>
<text stroke-width="1.5" stroke="black" class="piece white" x="710" y="780">♜</text>
<text class="piece black" x="10" y="80">♜</text>
<text class="piece black" x="710" y="80">♜</text>
<text stroke-width="1.5" stroke="black" class="piece white" x="110" y="780">♞</text>
<text stroke-width="1.5" stroke="black" class="piece white" x="610" y="780">♞</text>
<text class="piece black" x="110" y="80">♞</text>
<text class="piece black" x="610" y="80">♞</text>
</svg>